<?xml version="1.0" encoding="UTF-8" standalone="no"?>
<svg 
  version="1.1" 
  xmlns="http://www.w3.org/2000/svg" 
  xmlns:xlink="http://www.w3.org/1999/xlink" 
  xmlns:svg="http://www.w3.org/2000/svg"
  xmlns:rdf="http://www.w3.org/1999/02/22-rdf-syntax-ns#"
  xmlns:cc="http://creativecommons.org/ns#"
  xmlns:dc="http://purl.org/dc/elements/1.1/"
  viewBox="0 0 768 768"
  width="768"
  height="768"
>
<style>svg {background-color: white; }</style>"
<metadata id="metadata1">
Created by https://svgstud.io and licensed under CC-BY-SA 4.0 license. Please attribute https://svgstud.io
</metadata>
<metadata id="prompt">
Design a modern, minimalist logo for a car insurance company. The logo should feature a sleek car silhouette integrated with a shield or protection symbol, using a clean, professional color palette (e.g., navy blue, silver, and white). Emphasize trust, safety, and innovation. Style should be flat design or semi-3D, suitable for both digital and print branding. Include a bold sans-serif wordmark that reads 'DriveSecure' beneath or beside the icon. Background should be transparent.
</metadata>
<metadata id="version">
7
</metadata>
<metadata id="metadata2">
<rdf:RDF>
<cc:Work
    rdf:about="">
    <cc:license
    rdf:resource="http://creativecommons.org/licenses/by-sa/4.0/" />
    <dc:creator>
        <cc:Agent>
            <dc:title>https://svgstud.io</dc:title>
        </cc:Agent>
    </dc:creator>
</cc:Work>
<cc:License
    rdf:about="http://creativecommons.org/licenses/by-sa/4.0/">
    <cc:permits
    rdf:resource="http://creativecommons.org/ns#Reproduction" />
    <cc:permits
    rdf:resource="http://creativecommons.org/ns#Distribution" />
    <cc:requires
    rdf:resource="http://creativecommons.org/ns#Notice" />
    <cc:requires
    rdf:resource="http://creativecommons.org/ns#Attribution" />
    <cc:permits
    rdf:resource="http://creativecommons.org/ns#DerivativeWorks" />
    <cc:requires
    rdf:resource="http://creativecommons.org/ns#ShareAlike" />
</cc:License>
</rdf:RDF>
</metadata>
<metadata id="uid">
e6a9e42a7bd2c0f00cdf545a6777d3e5968267f818a66ebd5f9ae43e2e693662
</metadata>
<path stroke="none" fill="black" fill-rule="evenodd" d="M387.50,531.53C374.48,531.80 365.39,531.48 358.61,530.51C353.17,529.74 344.40,528.12 339.11,526.92C333.82,525.72 324.40,522.98 318.17,520.84C311.94,518.69 302.38,514.70 296.94,511.97C291.50,509.24 284.45,505.36 281.27,503.35C278.10,501.34 271.68,496.66 267.00,492.96C262.32,489.25 254.44,482.01 249.48,476.86C244.52,471.71 237.44,463.45 233.76,458.50C230.08,453.55 224.35,444.26 221.03,437.86C217.71,431.46 213.84,423.16 212.44,419.43C211.03,415.70 208.83,408.31 207.55,403.00C206.27,397.70 204.65,386.84 203.96,378.87C202.97,367.40 202.97,361.66 203.92,351.43C204.59,344.32 205.78,335.12 206.56,331.00C207.35,326.88 209.40,319.23 211.12,314.00C212.83,308.77 216.49,300.00 219.25,294.50C222.00,289.00 227.46,279.78 231.38,274.01C235.30,268.24 243.22,258.61 249.00,252.62C254.78,246.63 263.10,238.93 267.50,235.49C271.90,232.06 279.45,226.68 284.29,223.54C289.12,220.40 297.67,215.66 303.29,213.01C308.90,210.36 318.23,206.55 324.00,204.54C329.77,202.52 339.50,199.79 345.61,198.46C351.71,197.14 362.06,195.55 368.61,194.92C375.38,194.28 385.24,194.08 391.50,194.46C397.55,194.83 407.50,195.98 413.61,197.02C419.72,198.07 429.17,200.34 434.61,202.08C440.05,203.81 449.30,207.38 455.16,209.99C461.02,212.61 469.69,217.09 474.43,219.96C479.17,222.82 486.55,227.76 490.83,230.94C495.12,234.11 503.01,240.91 508.37,246.03C513.73,251.16 520.96,258.76 524.43,262.93C527.89,267.09 533.34,274.32 536.53,279.00C539.72,283.68 544.48,292.00 547.11,297.50C549.74,303.00 553.28,311.66 554.98,316.74C556.67,321.82 559.04,330.37 560.23,335.74C562.05,343.91 562.41,348.76 562.45,365.50C562.49,381.43 562.12,387.23 560.63,394.00C559.61,398.68 557.47,406.50 555.87,411.38C554.28,416.27 551.16,424.13 548.94,428.86C546.73,433.59 543.49,439.72 541.75,442.48C540.02,445.24 535.48,451.77 531.68,457.00C527.88,462.23 521.11,470.26 516.64,474.86C512.16,479.46 504.45,486.63 499.50,490.79C494.55,494.95 487.21,500.51 483.18,503.14C479.16,505.77 471.06,510.24 465.18,513.07C459.31,515.90 449.32,519.95 443.00,522.06C436.68,524.17 425.88,527.08 419.00,528.52C408.76,530.66 403.07,531.21 387.50,531.53zM389.00,509.38C395.88,509.12 404.65,508.44 408.50,507.87C412.35,507.30 419.79,505.77 425.03,504.46C430.27,503.15 437.58,500.94 441.29,499.54C444.99,498.15 452.18,494.92 457.26,492.38C462.34,489.83 469.88,485.49 474.00,482.73C478.12,479.96 484.65,475.13 488.50,471.99C492.35,468.84 498.67,462.93 502.54,458.85C506.42,454.77 512.17,447.54 515.33,442.80C518.49,438.05 522.14,431.54 523.44,428.33C524.75,425.12 526.13,420.80 526.52,418.74C527.00,416.18 526.86,415.00 526.07,415.00C525.44,415.00 521.86,417.88 518.11,421.40C512.19,426.95 510.53,427.96 505.48,429.00C502.28,429.67 496.84,430.03 493.38,429.81C488.28,429.49 486.26,428.81 482.64,426.21C479.62,424.04 477.02,423.00 474.63,423.00C472.69,423.00 463.31,424.10 453.80,425.44C444.28,426.78 424.80,429.06 410.50,430.52C396.20,431.98 377.07,433.47 368.00,433.83C351.50,434.50 351.50,434.50 326.75,459.69C311.46,475.25 302.00,485.62 302.00,486.83C302.00,488.33 304.13,489.72 311.30,492.86C316.41,495.10 323.70,498.11 327.50,499.54C331.30,500.97 339.84,503.46 346.47,505.07C353.11,506.68 362.58,508.42 367.52,508.93C372.46,509.44 382.12,509.65 389.00,509.38zM284.13,475.00C284.69,475.00 284.75,474.38 284.28,473.53C283.82,472.72 279.43,467.70 274.51,462.37C269.59,457.04 262.72,449.26 259.25,445.09C255.78,440.92 251.21,434.57 249.09,431.00C246.98,427.43 243.90,421.80 242.26,418.50C240.62,415.20 238.36,409.80 237.23,406.50C236.10,403.20 234.60,397.57 233.89,394.00C233.09,389.95 232.59,379.20 232.55,365.50C232.51,346.96 232.79,342.56 234.33,337.50C235.34,334.20 237.27,329.59 238.62,327.25C239.97,324.92 242.30,321.88 243.79,320.50C245.27,319.12 249.53,316.40 253.24,314.45C256.95,312.50 260.77,309.76 261.74,308.37C262.71,306.97 266.78,301.82 270.78,296.91C274.78,292.00 280.63,285.96 283.78,283.49C286.93,281.02 292.43,277.48 296.00,275.62C299.57,273.77 305.43,271.31 309.00,270.17C312.57,269.02 319.32,267.40 324.00,266.56C328.68,265.72 337.45,264.57 343.50,264.02C349.55,263.46 360.41,263.00 367.64,263.00C374.87,263.00 385.45,263.47 391.14,264.05C396.84,264.62 405.90,265.98 411.28,267.07C416.66,268.16 423.51,269.97 426.51,271.09C429.52,272.21 434.79,275.00 438.24,277.29C441.68,279.57 449.04,285.84 454.59,291.22C460.14,296.60 465.43,301.00 466.34,301.00C467.25,301.00 468.00,300.32 468.00,299.50C468.00,298.36 469.25,298.00 473.25,298.00C476.75,298.01 479.60,298.68 481.82,300.03C484.23,301.50 485.05,302.65 484.82,304.26C484.64,305.47 483.05,307.38 481.29,308.48C479.52,309.59 478.06,310.99 478.04,311.60C478.02,312.20 478.81,313.42 479.80,314.32C480.79,315.22 484.91,317.31 488.94,318.98C492.98,320.64 498.58,323.40 501.39,325.11C504.20,326.82 507.51,329.15 508.75,330.28C509.99,331.42 511.00,332.72 511.00,333.17C511.00,333.63 510.29,334.00 509.43,334.00C508.34,334.00 508.04,334.61 508.43,336.00C508.74,337.10 509.25,338.90 509.56,339.99C509.88,341.09 509.84,342.45 509.48,343.03C509.12,343.61 505.48,340.66 501.17,336.28C496.95,332.00 490.82,326.93 487.54,325.00C481.58,321.50 481.58,321.50 459.04,321.50C446.64,321.50 428.58,321.90 418.90,322.40C406.50,323.03 401.11,322.98 400.64,322.22C400.27,321.63 400.76,320.91 401.74,320.62C402.71,320.33 407.32,319.41 412.00,318.58C416.68,317.74 425.90,316.62 432.50,316.07C439.10,315.52 450.03,314.77 456.79,314.41C465.16,313.95 468.96,313.38 468.71,312.62C468.46,311.89 463.53,311.39 454.42,311.18C446.76,311.00 433.52,311.36 425.00,311.98C416.48,312.60 401.85,314.00 392.50,315.09C383.15,316.17 365.15,317.89 352.50,318.91C339.85,319.93 329.19,320.48 328.82,320.13C328.45,319.78 326.57,312.98 324.64,305.00C322.71,297.02 320.46,288.62 319.63,286.32C318.49,283.12 318.42,281.90 319.32,281.16C319.97,280.63 326.12,279.27 333.00,278.15C339.88,277.02 349.32,275.56 354.00,274.91C358.68,274.25 374.88,273.44 390.00,273.11C417.50,272.50 417.50,272.50 406.00,270.50C396.64,268.87 390.22,268.51 371.50,268.57C355.37,268.61 344.92,269.14 336.50,270.35C329.90,271.30 321.46,272.66 317.74,273.38C314.02,274.10 310.74,274.93 310.45,275.22C310.16,275.50 310.83,278.03 311.93,280.82C313.03,283.62 314.82,289.41 315.90,293.70C316.98,297.99 318.64,306.57 319.58,312.77C320.52,318.98 321.07,324.26 320.81,324.52C320.55,324.78 318.35,324.33 315.92,323.51C313.49,322.70 307.15,321.39 301.84,320.60C296.53,319.82 289.45,318.18 286.09,316.95C280.00,314.73 280.00,314.73 280.00,308.11C280.00,304.47 280.44,299.94 280.98,298.06C281.52,296.17 281.80,294.47 281.60,294.26C281.39,294.06 280.25,295.47 279.06,297.41C277.86,299.34 276.16,304.01 275.28,307.78C273.67,314.64 273.67,314.64 265.93,315.77C261.68,316.39 256.24,317.82 253.85,318.94C251.45,320.07 248.26,322.14 246.75,323.54C245.13,325.03 244.00,327.13 244.00,328.63C244.00,330.04 245.34,335.53 246.97,340.84C248.61,346.15 250.65,354.55 251.51,359.50C252.37,364.45 253.35,372.01 253.69,376.30C254.18,382.57 254.68,384.29 256.22,385.12C257.27,385.68 265.32,388.58 274.11,391.57C282.90,394.55 291.46,397.70 293.14,398.57C294.81,399.44 296.40,399.93 296.67,399.66C296.94,399.40 296.77,397.24 296.30,394.87C295.45,390.56 295.45,390.56 276.97,384.24C266.81,380.77 258.02,377.29 257.43,376.52C256.84,375.74 255.38,367.09 254.19,357.30C253.00,347.51 251.74,336.51 251.38,332.86C250.77,326.48 250.85,326.14 253.35,324.51C255.30,323.23 258.24,322.79 265.22,322.75C270.33,322.72 283.27,323.48 294.00,324.43C304.73,325.38 314.37,326.49 315.43,326.90C317.06,327.53 316.48,328.15 311.74,330.86C308.64,332.64 305.00,335.40 303.65,337.00C302.30,338.61 300.44,341.90 299.52,344.32C298.59,346.73 297.99,349.95 298.17,351.46C298.50,354.16 298.55,354.13 301.75,349.58C303.53,347.03 306.15,344.51 307.56,343.98C308.97,343.44 311.44,343.00 313.03,343.00C314.81,343.00 317.22,344.13 319.27,345.93C321.10,347.54 323.79,351.04 325.24,353.70C326.69,356.37 329.00,362.41 330.36,367.13C331.73,371.85 334.05,383.54 335.51,393.10C336.98,402.66 338.39,410.82 338.65,411.24C338.91,411.66 339.61,412.00 340.21,412.00C340.98,412.00 341.12,408.46 340.69,400.25C340.35,393.79 339.17,383.52 338.06,377.44C336.95,371.35 334.87,362.58 333.44,357.94C332.01,353.30 330.60,348.04 330.31,346.25C329.90,343.75 330.14,343.00 331.34,343.00C332.20,343.00 334.00,344.46 335.35,346.25C336.70,348.04 339.38,352.43 341.31,356.00C343.23,359.57 346.49,366.55 348.55,371.50C350.60,376.45 354.50,385.68 357.22,392.00C359.93,398.32 363.26,404.95 364.61,406.73C366.37,409.04 368.72,410.47 372.79,411.72C377.60,413.20 382.20,413.46 402.00,413.37C418.45,413.29 431.65,412.60 446.00,411.09C457.27,409.89 473.48,408.03 482.00,406.95C490.52,405.87 501.10,404.27 505.50,403.39C509.90,402.51 516.93,400.71 521.12,399.39C525.31,398.07 529.91,396.07 531.34,394.94C532.78,393.82 534.44,391.07 535.04,388.85C535.64,386.62 535.92,384.59 535.66,384.33C535.40,384.07 529.72,386.65 523.03,390.07C515.15,394.09 510.53,395.93 509.90,395.30C509.27,394.67 510.59,391.82 513.64,387.20C518.18,380.35 518.66,379.96 526.21,376.91C530.53,375.17 534.50,372.94 535.03,371.94C535.56,370.95 536.00,368.55 536.00,366.62C536.00,364.70 535.53,362.83 534.96,362.48C534.39,362.12 529.08,364.13 523.15,366.93C517.23,369.73 508.12,373.10 502.90,374.42C497.68,375.75 485.79,377.76 476.46,378.90C467.13,380.04 454.55,381.26 448.50,381.62C440.76,382.07 434.09,381.80 426.00,380.69C419.68,379.82 409.32,378.82 403.00,378.47C396.68,378.12 384.89,376.99 376.80,375.96C368.72,374.93 361.20,373.52 360.09,372.83C358.99,372.13 356.99,369.08 355.65,366.03C354.32,362.99 352.45,358.11 351.51,355.19C350.03,350.59 349.06,349.40 344.22,346.19C339.01,342.75 338.81,342.48 341.29,342.19C342.75,342.01 348.12,343.00 353.22,344.37C358.33,345.75 369.25,348.24 377.50,349.90C385.75,351.57 396.77,353.45 402.00,354.08C407.93,354.79 416.58,354.96 425.00,354.52C432.43,354.14 454.98,352.39 475.13,350.64C511.76,347.45 511.76,347.45 515.80,343.80C518.02,341.80 521.00,339.39 522.42,338.46C523.84,337.53 525.00,336.39 525.00,335.93C525.00,335.47 521.96,332.66 518.25,329.70C514.54,326.73 509.55,323.24 507.18,321.93C504.80,320.62 503.27,319.41 503.77,319.24C504.28,319.07 506.87,319.87 509.53,321.01C512.19,322.15 517.23,325.13 520.72,327.62C524.21,330.11 528.18,333.83 529.53,335.87C531.18,338.35 532.77,343.50 534.32,351.31C535.83,358.92 537.40,364.05 538.82,365.97C540.57,368.33 540.99,370.27 540.97,375.71C540.95,379.44 540.53,385.43 540.04,389.00C539.55,392.57 538.84,396.96 538.45,398.75C537.88,401.41 538.06,402.00 539.43,402.00C540.46,402.00 541.88,400.26 543.11,397.49C544.20,395.01 546.02,389.33 547.15,384.87C548.92,377.89 549.14,374.56 548.76,361.13C548.44,349.76 547.73,343.12 546.17,336.77C544.99,331.97 542.25,323.56 540.08,318.08C537.91,312.61 533.59,303.71 530.47,298.31C527.36,292.92 522.27,285.13 519.16,281.02C516.05,276.90 509.50,269.37 504.62,264.28C499.74,259.20 492.26,252.30 488.01,248.95C483.76,245.60 475.91,240.17 470.56,236.88C465.21,233.60 456.26,228.88 450.67,226.39C445.07,223.91 436.09,220.57 430.71,218.97C425.33,217.36 417.00,215.34 412.21,214.48C407.42,213.61 397.43,212.65 390.00,212.34C380.31,211.94 372.97,212.24 364.00,213.43C357.12,214.34 347.90,216.00 343.50,217.12C339.10,218.25 331.23,220.76 326.00,222.71C320.77,224.66 312.50,228.26 307.61,230.71C302.72,233.16 294.39,238.01 289.11,241.49C283.82,244.97 276.12,250.70 272.00,254.23C267.88,257.76 261.76,263.76 258.42,267.57C255.08,271.38 250.52,276.99 248.30,280.04C246.07,283.08 241.93,289.66 239.09,294.65C236.25,299.64 232.33,307.50 230.38,312.11C228.43,316.73 225.75,324.74 224.43,329.92C223.11,335.10 221.51,343.20 220.88,347.92C220.19,353.09 219.96,362.26 220.30,371.00C220.76,382.44 221.50,387.96 223.85,397.16C225.52,403.72 228.71,412.69 231.13,417.66C233.50,422.52 238.14,430.55 241.45,435.50C244.87,440.62 251.85,448.86 257.64,454.62C263.24,460.18 271.27,467.05 275.49,469.87C279.71,472.69 283.60,475.00 284.13,475.00zM314.88,429.00C316.01,429.00 317.18,427.90 317.81,426.25C318.38,424.74 319.31,421.93 319.87,420.00C320.43,418.07 321.14,414.25 321.44,411.50C321.99,406.56 321.98,406.53 320.54,409.50C319.74,411.15 319.07,413.08 319.05,413.80C319.02,414.51 318.30,416.46 317.44,418.12C316.17,420.58 315.61,420.92 314.44,419.95C313.65,419.30 312.36,416.60 311.58,413.95C310.79,411.31 309.17,402.69 307.98,394.79C306.20,383.10 306.01,379.67 306.93,376.27C307.54,373.98 309.36,370.79 310.96,369.19C313.14,367.01 313.59,365.99 312.74,365.14C312.11,364.51 310.90,364.00 310.05,364.01C309.20,364.01 307.52,365.47 306.33,367.26C305.13,369.04 303.60,373.35 302.93,376.84C302.14,380.94 301.91,387.36 302.30,394.99C302.62,401.48 303.63,409.63 304.53,413.10C305.43,416.57 306.82,420.69 307.63,422.26C308.44,423.82 309.98,425.98 311.05,427.05C312.12,428.12 313.85,429.00 314.88,429.00zM409.75,408.85C399.71,408.77 388.29,408.41 384.37,408.05C380.45,407.69 376.11,406.65 374.72,405.74C373.34,404.83 369.91,400.65 367.10,396.46C364.30,392.26 362.00,388.14 362.00,387.30C362.00,386.04 362.94,385.88 367.25,386.37C370.14,386.70 379.93,387.42 389.00,387.98C398.07,388.54 407.35,389.24 409.61,389.54C412.05,389.86 414.56,390.98 415.76,392.29C416.87,393.51 420.08,397.56 422.89,401.30C425.70,405.04 428.00,408.31 428.00,408.55C428.00,408.80 419.79,408.93 409.75,408.85zM316.85,406.00C317.35,406.00 318.03,404.59 318.38,402.88C318.72,401.16 319.00,396.89 319.00,393.40C319.00,389.86 318.28,385.24 317.37,382.98C316.48,380.74 315.24,379.09 314.62,379.30C313.88,379.56 313.54,383.18 313.63,390.10C313.70,395.82 314.26,401.74 314.86,403.25C315.46,404.76 316.36,406.00 316.85,406.00zM440.83,404.99C435.33,405.00 435.05,404.87 430.98,400.25C428.68,397.64 425.71,393.36 424.38,390.75C422.20,386.45 422.14,386.00 423.73,386.01C424.70,386.01 427.30,387.12 429.50,388.47C432.93,390.59 434.74,390.94 442.21,390.97C447.00,390.99 460.05,390.08 471.21,388.96C482.37,387.84 495.26,386.24 499.86,385.41C504.46,384.57 508.45,384.12 508.73,384.39C509.00,384.67 508.20,386.61 506.95,388.70C505.70,390.79 503.77,393.51 502.66,394.75C501.55,395.99 499.04,397.46 497.07,398.02C495.11,398.59 482.93,400.38 470.00,402.02C457.07,403.65 443.95,404.99 440.83,404.99zM408.75,403.86C412.90,403.94 416.00,403.58 416.00,403.02C416.00,402.49 414.99,401.38 413.75,400.58C412.13,399.52 406.78,398.91 394.50,398.39C379.01,397.75 377.62,397.82 378.82,399.28C379.54,400.15 381.57,401.19 383.32,401.57C385.07,401.96 389.88,402.60 394.00,403.00C398.12,403.39 404.76,403.78 408.75,403.86zM246.01,393.49C246.52,393.18 246.70,387.81 246.41,381.21C246.13,374.77 245.42,366.68 244.83,363.24C244.25,359.79 243.41,356.75 242.97,356.48C242.52,356.21 241.82,357.45 241.41,359.24C240.99,361.03 240.72,366.32 240.80,370.99C240.89,375.66 241.47,381.96 242.09,384.99C242.71,388.02 243.65,391.30 244.16,392.28C244.68,393.26 245.51,393.80 246.01,393.49zM400.75,370.84C402.54,370.93 404.00,370.79 404.00,370.53C404.00,370.27 403.02,368.04 401.82,365.58C400.50,362.86 398.64,360.71 397.07,360.11C395.66,359.57 392.53,358.82 390.11,358.45C385.73,357.78 385.73,357.78 386.44,360.64C386.83,362.21 388.04,364.94 389.12,366.69C390.53,368.97 392.00,369.99 394.29,370.28C396.06,370.50 398.96,370.75 400.75,370.84zM372.22,368.00C374.30,368.00 376.00,367.76 376.00,367.47C376.00,367.18 374.66,364.29 373.02,361.04C371.38,357.80 369.60,354.87 369.05,354.53C368.50,354.19 365.79,353.64 363.02,353.32C360.26,352.99 358.00,353.12 358.01,353.61C358.01,354.10 359.36,356.83 360.99,359.68C362.62,362.53 364.97,365.57 366.20,366.43C367.44,367.29 370.14,368.00 372.22,368.00zM432.38,364.59C439.60,364.22 453.82,363.25 464.00,362.43C474.18,361.61 488.12,360.26 495.00,359.43C501.88,358.60 508.51,357.49 509.75,356.98C510.99,356.46 512.00,355.36 512.00,354.52C512.00,353.61 511.10,353.01 509.75,353.01C508.51,353.02 498.50,353.89 487.50,354.94C476.50,356.00 459.40,357.39 449.50,358.04C439.60,358.69 427.68,359.50 423.00,359.86C414.50,360.50 414.50,360.50 416.88,362.88C419.23,365.23 419.47,365.26 432.38,364.59zM518.00,359.50C518.46,359.21 519.59,356.74 520.50,354.01C521.40,351.28 522.00,348.03 521.82,346.79C521.50,344.53 521.50,344.53 519.35,346.85C518.17,348.12 517.04,350.59 516.85,352.33C516.66,354.07 516.64,356.52 516.82,357.76C517.00,359.01 517.53,359.79 518.00,359.50zM411.40,350.18C410.91,350.45 408.70,350.32 406.50,349.91C404.30,349.49 398.90,347.49 394.50,345.47C390.10,343.44 382.45,340.31 377.50,338.52C372.55,336.73 361.75,333.67 353.50,331.71C345.25,329.76 336.70,327.77 334.50,327.29C332.05,326.76 330.50,325.86 330.50,324.96C330.50,323.78 332.01,323.56 338.50,323.79C342.90,323.95 350.55,324.79 355.50,325.66C360.45,326.52 369.90,329.02 376.50,331.20C383.10,333.38 392.32,337.16 397.00,339.60C401.68,342.04 407.03,345.30 408.90,346.86C410.77,348.42 411.90,349.91 411.40,350.18zM304.14,311.88C305.05,311.94 306.01,311.41 306.29,310.69C306.57,309.96 306.56,308.16 306.28,306.69C305.77,304.04 305.64,304.00 297.88,304.00C293.55,304.00 290.00,303.66 290.00,303.24C290.00,302.82 290.94,301.89 292.10,301.17C293.25,300.45 295.97,296.01 298.14,291.31C300.32,286.61 301.86,282.52 301.57,282.24C301.28,281.95 298.99,282.50 296.48,283.45C293.97,284.41 291.29,286.17 290.52,287.35C289.75,288.53 288.14,292.88 286.94,297.00C285.74,301.12 284.54,305.98 284.27,307.78C283.77,311.06 283.77,311.06 287.64,310.53C289.76,310.23 293.98,310.39 297.00,310.87C300.02,311.35 303.24,311.81 304.14,311.88zM392.01,306.00C392.54,306.00 395.80,303.54 399.24,300.53C402.68,297.52 409.02,292.34 413.31,289.03C421.12,283.00 421.12,283.00 416.63,283.00C414.15,283.00 410.96,283.44 409.54,283.99C408.11,284.53 404.70,287.07 401.97,289.63C399.23,292.19 396.12,295.69 395.06,297.40C394.00,299.12 392.66,301.75 392.09,303.26C391.44,304.97 391.41,306.00 392.01,306.00z" />

</svg>